<svg width="108" height="117" viewBox="0 0 108 117" fill="none" xmlns="http://www.w3.org/2000/svg">
<path d="M20.7458 47.6399C17.6311 47.6399 15.0924 46.9146 13.1298 45.4639C11.2098 44.0133 10.0791 42.0293 9.73777 39.5119L10.2498 39.4479V46.9999H0.841766V0.919922H10.4418V21.5919L9.86577 21.4639C10.3351 19.0746 11.5724 17.1973 13.5778 15.8319C15.6258 14.4239 18.1858 13.7199 21.2578 13.7199C24.2018 13.7199 26.7404 14.4239 28.8738 15.8319C31.0498 17.1973 32.7138 19.1386 33.8658 21.6559C35.0604 24.1733 35.6578 27.1386 35.6578 30.5519C35.6578 34.0079 35.0391 37.0159 33.8018 39.5759C32.5644 42.1359 30.8364 44.1199 28.6178 45.5279C26.3991 46.9359 23.7751 47.6399 20.7458 47.6399ZM18.0578 39.9599C20.3191 39.9599 22.1538 39.1493 23.5618 37.5279C24.9698 35.9066 25.6738 33.6026 25.6738 30.6159C25.6738 27.6293 24.9484 25.3466 23.4978 23.7679C22.0898 22.1893 20.2338 21.3999 17.9298 21.3999C15.7111 21.3999 13.8764 22.2106 12.4258 23.8319C11.0178 25.4106 10.3138 27.6933 10.3138 30.6799C10.3138 33.6666 11.0178 35.9706 12.4258 37.5919C13.8764 39.1706 15.7538 39.9599 18.0578 39.9599Z" fill="#FAFAFA"/>
<path d="M51.5893 47.6399C49.2853 47.6399 47.3013 47.1493 45.6373 46.1679C44.0159 45.1439 42.7786 43.7999 41.9253 42.1359C41.0719 40.4293 40.6453 38.5306 40.6453 36.4399V14.3599H50.2453V34.5839C50.2453 36.3759 50.6933 37.7199 51.5893 38.6159C52.4853 39.5119 53.7439 39.9599 55.3653 39.9599C56.8159 39.9599 58.0959 39.6186 59.2053 38.9359C60.3146 38.2533 61.1893 37.3146 61.8293 36.1199C62.5119 34.8826 62.8533 33.4746 62.8533 31.8959L63.6853 39.7679C62.6186 42.1146 61.0613 44.0133 59.0133 45.4639C56.9653 46.9146 54.4906 47.6399 51.5893 47.6399ZM63.0453 46.9999V39.3199H62.8533V14.3599H72.4533V46.9999H63.0453Z" fill="#FAFAFA"/>
<path d="M92.9008 47.6399C88.1221 47.6399 84.3248 46.6799 81.5088 44.7599C78.6928 42.8399 77.1568 40.1946 76.9008 36.8239H85.4768C85.6901 38.2746 86.4154 39.3839 87.6528 40.1519C88.9328 40.8773 90.6821 41.2399 92.9008 41.2399C94.9061 41.2399 96.3568 40.9626 97.2528 40.4079C98.1914 39.8106 98.6608 38.9786 98.6608 37.9119C98.6608 37.1013 98.3834 36.4826 97.8288 36.0559C97.3168 35.5866 96.3568 35.2026 94.9488 34.9039L89.7008 33.8159C85.8181 33.0053 82.9594 31.7893 81.1248 30.1679C79.2901 28.5039 78.3728 26.3706 78.3728 23.7679C78.3728 20.6106 79.5888 18.1573 82.0208 16.4079C84.4528 14.6159 87.8448 13.7199 92.1968 13.7199C96.5061 13.7199 99.9408 14.5946 102.501 16.3439C105.061 18.0506 106.469 20.4399 106.725 23.5119H98.1488C97.9781 22.4026 97.3808 21.5706 96.3568 21.0159C95.3328 20.4186 93.8821 20.1199 92.0048 20.1199C90.2981 20.1199 89.0181 20.3759 88.1648 20.8879C87.3541 21.3573 86.9488 22.0399 86.9488 22.9359C86.9488 23.7039 87.2901 24.3226 87.9728 24.7919C88.6554 25.2186 89.7861 25.6026 91.3648 25.9439L97.2528 27.1599C100.538 27.8426 103.013 29.1226 104.677 30.9999C106.383 32.8346 107.237 35.0106 107.237 37.5279C107.237 40.7279 105.978 43.2239 103.461 45.0159C100.986 46.7653 97.4661 47.6399 92.9008 47.6399Z" fill="#FAFAFA"/>
<path d="M0.839844 103.36V92.8H11.3998V103.36H0.839844Z" fill="#FAFAFA"/>
<path d="M19.0898 103.36V70.72H28.4978V78.4H28.6898V103.36H19.0898ZM28.6898 86.336L27.8578 78.592C28.6258 75.8187 29.8845 73.7067 31.6339 72.256C33.3832 70.8053 35.5592 70.08 38.1618 70.08C38.9725 70.08 39.5698 70.1653 39.9538 70.336V79.296C39.7405 79.2107 39.4418 79.168 39.0578 79.168C38.6738 79.1253 38.2045 79.104 37.6498 79.104C34.5778 79.104 32.3165 79.6587 30.8658 80.768C29.4152 81.8347 28.6898 83.6907 28.6898 86.336Z" fill="#FAFAFA"/>
<path d="M44.0898 103.36V70.72H53.6898V103.36H44.0898ZM43.7698 66.368V56H54.0098V66.368H43.7698Z" fill="#FAFAFA"/>
<path d="M81.2439 104C78.1292 104 75.6332 103.275 73.7558 101.824C71.8785 100.373 70.7692 98.3893 70.4278 95.872L70.9398 95.808V116.48H61.3398V70.72H70.7478V77.952L70.1718 77.824C70.6412 75.4347 71.9212 73.5573 74.0118 72.192C76.1025 70.784 78.6838 70.08 81.7558 70.08C84.6998 70.08 87.2385 70.784 89.3718 72.192C91.5478 73.5573 93.2118 75.4987 94.3638 78.016C95.5585 80.5333 96.1559 83.4987 96.1559 86.912C96.1559 90.368 95.5372 93.376 94.2999 95.936C93.0625 98.496 91.3345 100.48 89.1158 101.888C86.8972 103.296 84.2732 104 81.2439 104ZM78.5558 96.32C80.8172 96.32 82.6518 95.5093 84.0598 93.888C85.4678 92.2667 86.1718 89.9627 86.1718 86.976C86.1718 83.9893 85.4465 81.7067 83.9958 80.128C82.5878 78.5493 80.7318 77.76 78.4278 77.76C76.2092 77.76 74.3745 78.5707 72.9238 80.192C71.5158 81.7707 70.8118 84.0533 70.8118 87.04C70.8118 90.0267 71.5158 92.3307 72.9238 93.952C74.3745 95.5307 76.2518 96.32 78.5558 96.32Z" fill="#FAFAFA"/>
</svg>
